<?xml version="1.0"?>
<svg width="512" height="512" xmlns="http://www.w3.org/2000/svg" xmlns:svg="http://www.w3.org/2000/svg" preserveAspectRatio="xMidYMid meet" style="vector-effect: non-scaling-stroke;">
 <metadata>Created by potrace 1.10, written by Peter Selinger 2001-2011</metadata>

 <g class="layer">
  <title>Layer 1</title>
  <g fill="#ffffff" id="svg_1" transform="translate(0 512) scale(0.1 -0.1)">
   <path d="m485.12675,4580.015559c-192.296013,-11.701465 -373.054265,-32.764102 -398.052747,-44.465567l-48.074003,-23.40293l0,-1895.637331l0,-1895.637331l44.228083,-11.701465c23.075522,-7.020879 190.373053,-9.361172 369.208345,-7.020879l326.903222,7.020879l5.76888,685.705849l3.84592,685.705849l138.453129,-7.020879l136.530169,-7.020879l332.672103,-643.580575c182.681212,-353.384243 351.901704,-662.302919 374.977225,-683.365556c34.613282,-37.444688 86.533206,-42.125274 392.283867,-42.125274c348.055784,0 413.436428,7.020879 413.436428,49.146153c0,11.701465 -151.91385,315.939555 -336.518023,676.344677c-184.604173,358.064829 -342.286903,666.983505 -348.055784,685.705849c-7.691841,23.40293 19.229601,44.465567 92.302086,74.889376c299.98178,117.01465 434.588989,362.745415 476.894112,868.248703c30.767362,367.426001 -17.306641,828.463722 -109.608727,1048.451264c-48.074003,112.334064 -182.681212,273.814281 -280.752179,334.661899c-196.141933,119.354943 -353.824664,152.119045 -811.489175,159.139924c-232.678176,4.680586 -580.733959,-2.340293 -774.952933,-14.041758zm967.248946,-805.060792c144.22201,-44.465567 209.602654,-124.035529 238.447056,-290.196332c46.151043,-264.453109 13.460721,-503.162995 -86.533206,-608.47618c-86.533206,-93.61172 -153.83681,-107.653478 -507.661474,-107.653478l-298.05882,0l-5.76888,491.46153c-1.92296,269.133695 0,503.162995 3.84592,519.545046c15.383681,44.465567 507.661474,42.125274 655.729404,-4.680586z" fill="#ffffff" id="svg_2"/>
   <path d="m3587.86144,4572.99468c-276.906259,-53.826739 -434.588989,-138.077287 -561.504358,-299.557504c-161.528651,-201.265198 -223.063375,-524.225632 -182.681212,-961.860423c26.921442,-306.578383 76.918405,-472.739186 190.373053,-624.858231c111.531688,-152.119045 178.835292,-191.904026 701.880448,-423.593033c236.524096,-105.313185 451.895631,-203.605491 480.740033,-222.327835c92.302086,-58.507325 130.761289,-142.757873 130.761289,-290.196332c0,-133.396701 -21.152561,-180.202561 -115.377608,-248.071058c-15.383681,-11.701465 -340.363943,-25.743223 -721.110049,-32.764102l-692.265647,-11.701465l0,-304.23809c0,-367.426001 -26.921442,-339.342485 384.592026,-407.210982c692.265647,-112.334064 1184.54344,-77.229669 1509.523702,109.993771c148.06793,84.250548 290.36698,264.453109 348.055784,437.634791c40.382163,124.035529 44.228083,177.862268 46.151043,468.0586c0,416.572154 -40.382163,599.115008 -173.066412,776.977276c-113.454648,154.459338 -255.753697,243.390472 -765.338132,472.739186c-230.755216,105.313185 -442.28083,208.286077 -467.279312,229.348714c-69.226565,53.826739 -103.839847,152.119045 -103.839847,287.856039c0,140.41758 48.074003,215.306956 165.374571,255.091937c46.151043,16.382051 288.44402,25.743223 615.347242,25.743223c392.283867,0 544.197717,7.020879 561.504358,28.083516c15.383681,18.722344 23.075522,124.035529 23.075522,315.939555c0,271.473988 -1.92296,287.856039 -42.305123,313.599262c-153.83681,100.632599 -1017.245909,168.501096 -1332.61137,105.313185z" fill="#ffffff" id="svg_3"/>
  </g>
 </g>
</svg>